# xmcd
#
# Track frame offsets:
#	150
#	15264
#	33211
#	48722
#	61903
#	76007
#	91271
#	106155
#	121680
#	134986
#	150500
#	164527
#	179699
#	194321
#	207965
#	222076
#	234208
#	246762
#	260866
#	275855
#	286845
#	302255
#	313895
#	326041
#
# Disc length: 4549 seconds
#
# Revision: 0
# Processed by: cddbd v1.5.2PL0 Copyright (c) Steve Scherf et al.
# Submitted via: EasyCDDAExtractor 16.0.6.1
#
DISCID=5111c318
DTITLE=Κόκοτας Σταμάτης - Τα χρυσά τραγούδια, 1968-Σταμάτης Κόκοτας, 1972
DYEAR=2002
DGENRE=Ελαφρολαϊκή
TTITLE0=Κόκοτας Σταμάτης - Όνειρο απατηλό [Τα χρ. τρ., 1968]
TTITLE1=Κόκοτας Σταμάτης - Στου Όθωνα τα χρόνια [Τα χρ. τρ., 1968]
TTITLE2=Κόκοτας Σταμάτης - Πήρες το μεγάλο δρόμο [Τα χρ. τρ., 1968]
TTITLE3=Κόκοτας Σταμάτης - Πέσε στην αγκαλιά μου [Τα χρ. τρ., 1968]
TTITLE4=Κόκοτας Σταμάτης - Είμαι ένας ήλιος [Τα χρ. τρ., 1968]
TTITLE5=Κόκοτας Σταμάτης - Μη μού χτυπάς τα μεσάνυχτα την πόρτα [Τα χρ. τρ., 1
TTITLE5=968]
TTITLE6=Κόκοτας Σταμάτης - Βρέχει ο Θεός [Τα χρ. τρ., 1968]
TTITLE7=Κόκοτας Σταμάτης - Με τι καρδιά τον κόσμο ν' αρνηθώ [Τα χρ. τρ., 1968]
TTITLE8=Κόκοτας Σταμάτης-Καλδάρας Απόστολος - Όταν θυμάμαι εκείνη [Τα χρ. τρ.,
TTITLE8=1968]
TTITLE9=Κόκοτας Σταμάτης - Στου Προφήτη Ηλία τα σοκάκια [Τα χρ. τρ., 1968]
TTITLE10=Κόκοτας Σταμάτης - Πλάϊ μου στάσου στη ζωή [Τα χρ. τρ., 1968]
TTITLE11=Κόκοτας Σταμάτης - Φαρμάκι τα γεράματα [Τα χρ. τρ., 1968]
TTITLE12=Κόκοτας Σταμάτης - Ο τρελλός [Στ. Κόκ., 1972]
TTITLE13=Κόκοτας Σταμάτης - Ρωμιός αγάπησε Ρωμιά [Στ. Κόκ., 1972]
TTITLE14=Κόκοτας Σταμάτης - Τελευταία αγάπη [Στ. Κόκ., 1972]
TTITLE15=Κόκοτας Σταμάτης - Φεύγω [Στ. Κόκ., 1972]
TTITLE16=Κόκοτας Σταμάτης - Πόσο μικρός ο άνθρωπος [Στ. Κόκ., 1972]
TTITLE17=Κόκοτας Σταμάτης - Γιατί θαρρείς με κέφι [Στ. Κόκ., 1972]
TTITLE18=Κόκοτας Σταμάτης - Δεν το μπορείς [Στ. Κόκ., 1972]
TTITLE19=Κόκοτας Σταμάτης - Καλογεράκι [Στ. Κόκ., 1972]
TTITLE20=Κόκοτας Σταμάτης - Πικρά φιλιά [Στ. Κόκ., 1972]
TTITLE21=Κόκοτας Σταμάτης - Μη καλέ μου [Στ. Κόκ., 1972]
TTITLE22=Κόκοτας Σταμάτης - Οι άγγελοι [Στ. Κόκ., 1972]
TTITLE23=Κόκοτας Σταμάτης - Οι μαχαλάδες [Στ. Κόκ., 1972]
EXTD=
EXTT0=
EXTT1=
EXTT2=
EXTT3=
EXTT4=
EXTT5=
EXTT6=
EXTT7=
EXTT8=
EXTT9=
EXTT10=
EXTT11=
EXTT12=
EXTT13=
EXTT14=
EXTT15=
EXTT16=
EXTT17=
EXTT18=
EXTT19=
EXTT20=
EXTT21=
EXTT22=
EXTT23=
PLAYORDER=
